<svg version="1.1" id="Layer_1" xmlns="http://www.w3.org/2000/svg" xmlns:xlink="http://www.w3.org/1999/xlink" x="0px" y="0px"
	 width="100%" viewBox="0 0 352 368" enable-background="new 0 0 352 368" xml:space="preserve">
<path fill="#000000" opacity="1.000000" stroke="none" 
	d="
M1.000000,248.458069 
	C4.437366,252.675903 7.437448,257.721893 12.150899,261.323822 
	C13.671460,262.485840 14.909983,264.199158 17.379091,262.845673 
	C19.173832,261.861816 20.429237,263.582489 21.641430,264.668152 
	C28.065260,270.421539 35.677944,274.131439 43.529526,277.423279 
	C45.391098,278.203796 46.930153,278.573181 48.844044,276.698669 
	C52.708935,272.913330 57.076462,270.212128 62.153492,275.281586 
	C63.360851,276.487152 64.831940,276.273987 66.080536,274.878662 
	C68.399780,272.286865 71.198784,272.625153 73.808434,274.169586 
	C80.933662,278.386536 88.857910,280.278442 96.734390,282.306335 
	C104.392227,284.277985 111.123672,280.793182 117.870483,278.179962 
	C123.116287,276.148163 128.083115,273.382477 133.127060,270.849640 
	C135.294220,269.761353 136.576767,269.937683 137.930801,272.294983 
	C146.771545,287.686127 162.101059,289.220245 176.025299,278.670959 
	C179.575317,275.981415 182.878952,272.948822 184.740112,268.211029 
	C193.353058,273.664307 202.115509,277.949402 211.235245,281.529938 
	C213.899765,282.576111 216.148026,282.643860 218.854660,281.489960 
	C222.660400,279.867493 226.662689,278.308014 230.720230,277.767883 
	C236.744919,276.965759 241.082993,273.629944 245.368378,269.920013 
	C247.957977,267.678131 250.731125,266.427368 253.957748,268.516815 
	C255.278351,269.372009 256.381439,269.095245 257.703644,268.620026 
	C267.139954,265.228485 272.673584,270.055328 270.990509,280.145050 
	C270.888794,280.754730 270.924866,281.387451 270.878265,282.421936 
	C277.451782,281.320404 283.314789,279.021545 288.876648,276.257996 
	C299.796509,270.832153 310.375702,264.701935 316.820923,253.750000 
	C326.696899,236.968506 327.902252,220.261139 315.705505,203.888657 
	C313.911621,201.480560 314.033295,201.389908 313.822815,198.630096 
	C316.559662,197.480255 317.507477,201.162811 320.493317,200.897324 
	C319.275055,186.553833 315.200439,174.099762 300.995880,167.296249 
	C303.575684,165.096848 303.575684,165.096848 307.473785,164.353241 
	C302.655273,159.517014 296.390778,162.093658 291.340546,161.075867 
	C289.739197,159.137497 292.281708,158.089630 291.478485,156.303650 
	C284.831757,156.454056 280.641754,161.985840 275.604187,164.361847 
	C272.852142,163.403641 274.784027,161.472916 273.655273,160.062546 
	C267.530975,167.022858 261.261322,173.663406 252.969833,177.895584 
	C251.934097,178.424225 250.922745,179.004364 249.867767,179.490479 
	C248.924011,179.925339 247.936935,180.071014 247.080170,179.273941 
	C246.182770,178.439072 246.555084,177.516617 246.854187,176.526245 
	C254.224777,152.121521 251.902786,128.486893 240.519012,105.850090 
	C235.092651,95.059647 227.300583,86.502464 215.252563,82.395859 
	C209.226654,80.341927 204.141495,81.781723 199.883423,85.390030 
	C189.764450,93.964905 184.323334,105.128395 182.001404,118.285690 
	C179.499771,132.461212 178.939041,146.703354 178.324677,160.995071 
	C178.049301,167.400726 179.032867,172.868958 185.754776,175.698929 
	C186.993713,176.220551 188.505905,177.126709 188.118744,179.313721 
	C185.768478,180.575958 184.246384,178.304245 182.350800,177.747467 
	C180.885147,177.316956 179.408813,176.641342 178.347183,178.325058 
	C177.399002,179.828812 177.986542,181.080032 179.087921,182.356125 
	C186.925629,191.437042 186.541351,197.884857 177.764969,205.899185 
	C163.961227,218.504349 145.604645,212.769913 141.267792,194.522186 
	C140.448837,191.076370 140.841797,187.726288 142.824097,184.945419 
	C144.711975,182.296997 143.906067,180.059814 142.339127,178.148758 
	C140.736603,176.194321 138.662506,177.807404 136.839172,178.429398 
	C135.353943,178.936066 133.947540,180.273087 132.233292,178.783829 
	C132.105957,176.339432 134.181595,175.630280 135.706543,175.146851 
	C141.644531,173.264450 142.848175,168.689438 142.657730,163.410934 
	C142.280060,152.942780 141.834259,142.480789 140.292068,132.085922 
	C139.389923,126.005142 138.144073,119.993774 137.493652,113.847008 
	C136.416687,103.669266 123.908920,85.124374 110.063324,82.098282 
	C103.538162,80.672127 97.529434,82.890747 92.209274,86.655792 
	C83.347641,92.927109 79.292686,102.520859 75.358269,112.067505 
	C68.328110,129.125793 69.677856,146.896637 71.321106,164.653137 
	C71.679726,168.528305 74.393555,171.466599 76.586952,176.348083 
	C65.147888,174.439301 58.787838,166.457809 50.719101,160.494949 
	C49.883492,164.103714 54.091438,165.180389 53.140602,168.839188 
	C44.201859,165.550888 36.071976,159.781525 25.950050,160.353210 
	C26.538656,162.948761 30.730112,162.105042 30.553959,165.980057 
	C24.435467,166.574921 17.822708,166.356125 12.227643,170.959915 
	C13.986665,171.813980 16.364386,170.395370 17.855749,173.109009 
	C10.631094,180.927307 7.404547,190.499466 9.255937,201.986481 
	C4.948678,201.147629 3.003053,203.546173 1.267804,206.809357 
	C1.000000,204.299988 1.000000,201.599976 1.289735,198.234222 
	C5.246606,194.197525 3.469892,189.426041 4.519089,185.379868 
	C5.157827,182.916595 2.595922,183.539551 1.000000,184.000000 
	C1.000000,182.611115 1.000000,181.222214 1.379397,179.395813 
	C4.175268,178.726303 6.531081,178.380600 8.347061,175.539551 
	C5.435998,175.070602 3.208308,175.221878 1.000000,176.000000 
	C1.000000,174.285645 1.000000,172.571289 1.000000,170.428467 
	C7.763906,171.078827 10.933078,164.503250 16.379738,162.777222 
	C20.933975,149.400070 30.871094,156.274445 39.102631,156.742493 
	C39.910316,156.788406 40.714714,156.892181 41.789967,156.994812 
	C42.969143,150.752441 46.989765,150.845657 51.479607,152.632675 
	C53.513943,151.099243 53.399807,149.030365 53.717182,147.086746 
	C57.494175,123.956154 65.148033,102.418228 79.963539,83.882523 
	C81.334190,82.167694 81.570549,80.368393 81.733009,78.342087 
	C83.228775,59.686745 89.817810,42.915070 100.418365,27.578335 
	C105.005325,20.941982 110.084129,14.773936 117.073204,10.668096 
	C129.984619,3.083080 139.524948,5.371568 145.709152,19.073513 
	C149.412964,27.279816 150.832550,35.572353 150.143051,44.292671 
	C149.766113,49.059772 151.869156,50.400867 156.086212,50.688828 
	C169.535751,51.607235 169.414642,51.678726 169.749344,38.218163 
	C169.951065,30.104845 172.194366,22.448765 176.517029,15.547795 
	C181.608627,7.419244 189.469315,5.693310 198.101349,10.051247 
	C208.670883,15.387343 215.809830,24.005119 221.496902,33.943069 
	C229.162933,47.339146 234.976746,61.438690 235.187134,77.202454 
	C235.254181,82.226250 238.923355,84.833527 241.662018,88.036621 
	C256.714386,105.641655 264.262146,126.551506 268.798462,148.836227 
	C269.143646,150.531906 268.764526,152.574127 270.606201,153.840347 
	C273.106323,153.157532 273.967896,150.746597 275.602020,149.174042 
	C277.824677,147.035141 280.475311,145.881348 282.020691,149.424194 
	C283.516815,152.854004 285.547760,152.198044 288.024536,151.356888 
	C293.492004,149.500122 298.560303,148.887253 301.416351,155.522675 
	C301.965546,156.798538 303.341431,156.677353 304.462677,156.872238 
	C307.169647,157.342682 309.383667,158.883347 311.671906,160.222748 
	C313.512115,161.299896 315.293823,163.509125 314.357147,165.105850 
	C311.606689,169.794235 315.213776,171.857758 317.384827,174.718079 
	C324.120697,183.592392 327.142975,193.504654 325.455322,204.673218 
	C325.101624,207.014145 325.282440,209.259369 326.284271,211.501190 
	C334.344238,229.536667 330.771423,245.966629 318.951996,260.992126 
	C308.829712,273.860138 295.334412,281.650238 279.681519,285.930237 
	C278.565826,286.235260 277.452789,286.560150 276.364899,286.949493 
	C276.099243,287.044586 275.937927,287.431213 275.423340,288.052216 
	C280.986664,297.747223 282.020966,308.537262 281.384369,319.649963 
	C280.842773,329.104156 276.936920,337.192291 271.447693,344.641693 
	C269.489349,347.299347 266.430664,346.983643 263.628479,346.930054 
	C260.437653,346.869019 258.097717,347.644409 257.532990,351.254639 
	C257.185883,353.473694 255.503586,354.700989 253.554947,355.366455 
	C246.644836,357.726410 239.772339,360.253845 232.734421,362.159546 
	C228.831329,363.216431 224.641479,362.309296 221.074356,360.408783 
	C201.396667,349.924500 192.168823,328.764679 203.576965,307.296967 
	C205.619339,303.453705 207.999466,299.884369 210.755188,296.518463 
	C214.138565,292.385864 213.364120,288.698608 208.473221,286.777985 
	C202.078796,284.266968 196.015335,281.169342 190.423996,277.241241 
	C187.168640,274.954193 185.181488,275.768707 182.998306,278.692566 
	C177.801498,285.652588 170.767639,289.794006 162.237366,291.378693 
	C153.326950,293.034058 142.371445,288.398163 137.716522,280.501617 
	C135.331100,276.455017 133.134384,275.286560 129.133011,278.406311 
	C122.485710,283.588989 114.121849,285.330536 106.787270,288.769928 
	C105.617836,296.674744 111.999634,300.006378 115.772522,305.507965 
	C119.728966,297.918671 125.680450,292.636078 131.400421,286.327118 
	C133.746124,290.895782 130.979919,293.492950 129.268692,295.903870 
	C127.376999,298.569031 124.853271,300.805725 122.813751,304.195251 
	C126.211853,303.806732 128.268372,302.073578 130.284271,300.245178 
	C131.076492,299.526672 132.032028,299.092316 132.994659,299.751953 
	C134.201233,300.578796 134.133850,301.941681 133.363678,302.849731 
	C128.321274,308.794830 129.586670,316.023468 129.209351,322.889923 
	C129.066483,325.489594 129.141174,327.892273 126.075577,328.949524 
	C124.349327,329.544861 124.485062,331.266876 124.220413,332.737701 
	C121.248642,349.253479 110.717339,359.786316 95.405769,363.932220 
	C79.092636,368.349365 64.573067,362.991516 53.345493,349.884094 
	C40.677071,335.094543 39.613571,318.497437 45.639065,300.795227 
	C46.549915,298.119263 47.506786,295.436401 48.727440,292.893585 
	C50.675571,288.835205 49.007755,286.512878 45.283737,285.168884 
	C37.851059,282.486389 31.256750,278.373016 24.934584,273.715912 
	C19.257378,269.533936 15.290868,269.640076 9.851802,274.041748 
	C7.352829,276.064087 4.508900,277.405792 1.329164,278.887878 
	C1.000000,276.958344 1.000000,274.916656 1.314915,272.309998 
	C4.084331,270.275879 6.676120,268.968628 8.503933,266.111847 
	C5.910461,263.653900 3.455232,261.326935 1.000001,259.000000 
	C1.000000,255.638718 1.000000,252.277420 1.000000,248.458069 
M117.553329,56.788811 
	C122.682045,55.374565 127.810074,53.957863 132.939850,52.547485 
	C134.604111,52.089920 136.198181,51.454544 136.588593,49.558228 
	C138.259232,41.443703 138.492599,33.300495 135.767990,25.397188 
	C134.298569,21.134809 131.779572,20.521255 128.058014,23.125586 
	C119.125435,29.376562 113.677666,38.243137 110.128410,48.294685 
	C108.762177,52.163891 106.651604,56.015217 106.944870,60.593861 
	C110.968185,60.203461 113.792175,58.361679 117.553329,56.788811 
M190.294861,55.204842 
	C196.642975,55.863724 201.928085,60.014404 208.351776,60.895256 
	C210.025085,55.858448 207.407501,51.583721 206.379700,47.184502 
	C204.299042,38.278801 200.042526,30.354115 193.559265,23.870230 
	C189.601761,19.912331 187.359131,20.598568 184.801590,25.471998 
	C181.443497,31.870932 182.606339,38.799427 182.024323,45.552929 
	C181.521362,51.389000 183.989792,54.253002 190.294861,55.204842 
M124.032829,309.957764 
	C122.604919,310.163910 121.070168,309.956116 119.555748,311.260254 
	C120.720131,314.448792 121.921371,317.738251 123.122612,321.027710 
	C123.425247,317.264526 125.919479,313.895569 124.032829,309.957764 
z"/>
<path fill="#000000" opacity="1.000000" stroke="none" 
	d="
M289.507507,48.585365 
	C298.427917,48.785671 304.782623,52.567459 308.825623,60.126980 
	C309.610474,61.594433 310.519867,63.014854 311.127228,64.553505 
	C312.334930,67.613243 314.327789,68.269295 317.466187,67.544670 
	C328.388062,65.022926 336.061798,68.231804 341.700562,77.393494 
	C346.274261,84.824562 345.126770,94.775192 339.007141,102.501907 
	C332.542938,110.663734 323.630829,114.408333 313.912201,116.739372 
	C305.664612,118.717575 297.360077,120.465515 289.141510,122.554329 
	C285.734528,123.420235 283.671234,122.434059 282.449066,119.285835 
	C277.529663,106.613708 271.484894,94.350082 268.959381,80.821320 
	C266.059448,65.286888 274.871246,51.078625 289.507507,48.585365 
z"/>
<path fill="#000000" opacity="1.000000" stroke="none" 
	d="
M130.482559,319.704468 
	C130.859619,316.687103 130.955719,313.984619 134.024887,312.433716 
	C136.601120,315.473328 134.564789,318.674744 134.265030,321.656586 
	C134.035522,323.939514 135.810730,328.251526 132.050278,328.006805 
	C128.090988,327.749084 130.418304,323.589508 130.219803,321.083740 
	C130.194855,320.768799 130.339279,320.440430 130.482559,319.704468 
z"/>
<path fill="#000000" opacity="1.000000" stroke="none" 
	d="
M224.479675,111.428741 
	C233.990234,120.237144 237.109879,131.433212 238.197205,143.424652 
	C239.401169,156.702377 237.988205,169.597015 231.849915,181.439590 
	C232.437500,183.374588 234.979355,182.291351 235.426254,185.228790 
	C225.561996,186.772720 215.441940,188.070129 206.338715,193.897598 
	C204.703079,189.657623 200.134964,188.876556 198.073654,185.434479 
	C190.916946,173.483902 187.355331,160.567169 188.299911,146.622849 
	C188.967209,136.771545 190.761841,127.138115 197.222626,119.152626 
	C200.280762,115.372765 203.001266,110.618439 207.029022,108.493347 
	C212.673203,105.515396 219.032455,106.664261 224.479675,111.428741 
M228.711761,178.100266 
	C234.035599,167.061722 234.114120,155.268738 233.738312,143.400284 
	C233.471497,134.974213 230.525528,127.418755 225.806671,120.638779 
	C219.557037,111.659454 211.132492,110.901039 203.511826,118.552582 
	C193.993713,128.109222 191.277328,144.860184 193.569550,158.985107 
	C194.188202,155.497437 195.886200,153.194901 197.358627,150.794373 
	C201.986023,143.250244 212.126907,142.100037 218.346054,148.358932 
	C224.820251,154.874512 227.290344,168.605865 223.697250,177.291580 
	C222.936279,179.131073 221.653229,180.971741 222.052612,183.204590 
	C225.541351,183.284149 227.163971,181.273682 228.711761,178.100266 
z"/>
<path fill="#000000" opacity="1.000000" stroke="none" 
	d="
M84.924606,171.939514 
	C78.085373,155.352158 83.209373,121.717247 97.320648,110.041504 
	C102.723083,105.571495 112.955620,103.556900 116.539024,108.054924 
	C119.780510,112.123787 123.988007,115.549019 126.301765,120.328613 
	C132.004410,132.108643 134.946823,144.357117 132.052383,157.475815 
	C131.292969,160.917709 131.163193,164.389954 131.121582,167.893524 
	C131.025681,175.966034 128.549561,183.058426 121.552597,187.665451 
	C119.389381,189.089798 120.422783,190.746796 120.021523,193.001038 
	C114.386620,191.060287 109.234344,188.486908 103.766632,186.807373 
	C98.320808,185.134583 92.646584,185.557083 86.430809,184.629669 
	C89.951004,179.642181 85.652252,176.303345 84.924606,171.939514 
M127.995880,139.559738 
	C127.244278,136.668869 126.479179,133.781433 125.744026,130.886383 
	C124.415558,125.654861 122.153069,120.921127 118.330009,117.034241 
	C111.836914,110.432716 104.047707,110.657005 97.596214,117.416573 
	C91.600807,123.698265 89.080154,131.556549 87.357033,139.711685 
	C84.887482,151.399506 86.720390,162.769760 90.238655,174.038544 
	C92.113731,180.044327 94.812729,182.049332 101.704865,181.125534 
	C101.403183,180.322296 101.154877,179.553162 100.831650,178.816940 
	C96.572426,169.115891 97.478050,159.697205 102.620224,150.644470 
	C108.203735,140.814743 119.879723,140.476822 126.183731,149.836212 
	C126.783226,150.726273 126.930061,152.089752 128.706284,152.207443 
	C128.845551,148.211029 128.963348,144.283875 127.995880,139.559738 
z"/>
<path fill="#000000" opacity="1.000000" stroke="none" 
	d="
M180.503769,236.780899 
	C175.587677,242.115402 178.246506,247.657455 179.320236,253.078735 
	C179.614548,254.564743 181.432007,255.864624 179.090546,258.304382 
	C176.881058,251.466278 171.082382,253.337067 166.235474,252.001236 
	C162.306824,250.918457 158.906296,249.231735 154.573608,250.020218 
	C152.533630,250.391464 150.163971,248.951172 147.840744,248.303040 
	C145.428726,251.159164 147.710052,256.085144 142.260071,259.104614 
	C144.099228,246.477356 142.107208,235.248672 136.451706,224.552689 
	C141.874207,226.866440 144.190674,231.402985 145.609772,236.347031 
	C146.490616,239.415741 147.843735,241.843628 150.498825,243.528854 
	C152.391266,244.730042 154.545303,245.608749 156.595978,244.407043 
	C158.601242,243.231949 157.504944,241.097763 157.285980,239.377106 
	C156.752228,235.182510 155.824265,230.984268 158.031998,226.413589 
	C161.176071,229.299545 160.814011,232.768723 161.152237,235.859222 
	C161.606445,240.009583 162.885605,243.627594 166.089615,246.397049 
	C167.874756,247.940063 170.054642,248.263367 172.187027,247.538925 
	C174.470596,246.763107 173.175003,244.712753 173.306366,243.199203 
	C173.632080,239.446304 174.119308,235.779312 178.390701,234.337952 
	C180.367920,233.670746 181.875870,233.748245 180.503769,236.780899 
z"/>
</svg>